<?xml version="1.0" standalone="no"?>
<!DOCTYPE svg PUBLIC "-//W3C//DTD SVG 20010904//EN"
 "http://www.w3.org/TR/2001/REC-SVG-20010904/DTD/svg10.dtd">
<svg version="1.0" xmlns="http://www.w3.org/2000/svg"
 width="101.000000pt" height="100.000000pt" viewBox="0 0 101.000000 100.000000"
 preserveAspectRatio="xMidYMid meet">

<g transform="translate(0.000000,100.000000) scale(0.100000,-0.100000)"
fill="#000000" stroke="none">
<path d="M102 983 c2 -10 5 -20 8 -23 3 -3 11 -18 18 -34 11 -24 10 -31 -4
-47 -16 -18 -15 -28 19 -182 20 -89 38 -178 42 -197 5 -34 48 -101 44 -70 -1
8 2 24 6 34 6 13 4 23 -6 30 -20 16 -23 136 -3 136 8 0 14 -6 14 -14 0 -8 16
-38 36 -67 20 -30 45 -76 56 -103 l19 -50 -22 -30 c-17 -23 -18 -27 -4 -16 17
14 17 13 10 -9 -5 -16 -4 -21 4 -17 6 4 11 2 11 -5 0 -8 4 -8 15 1 12 10 16 9
21 -3 5 -13 17 -15 62 -11 31 3 63 11 70 17 15 12 32 -5 32 -32 0 -11 -3 -11
-15 -1 -9 7 -15 8 -15 2 0 -5 7 -12 15 -16 8 -3 15 -10 15 -16 0 -6 -4 -9 -9
-6 -5 4 -7 -3 -4 -15 5 -20 7 -20 16 -4 9 17 11 16 23 -6 11 -21 12 -17 7 36
-3 33 -10 69 -15 80 -6 15 -7 10 -3 -15 4 -28 3 -31 -6 -17 -23 39 -1 90 67
158 l64 63 0 -47 c0 -27 -5 -58 -12 -70 -6 -12 -12 -33 -13 -47 -2 -14 -8 -63
-15 -110 -7 -47 -12 -105 -11 -129 2 -43 21 -94 41 -106 5 -3 3 7 -5 22 -17
32 -19 63 -5 63 5 0 6 8 3 17 -5 13 -2 15 12 10 14 -6 16 -5 7 6 -7 8 -9 17
-6 20 4 3 3 14 -1 24 -5 10 -9 20 -10 23 -1 3 -5 13 -9 23 -5 10 -3 23 4 32 6
8 9 19 6 24 -4 6 -4 21 -1 34 9 33 58 35 73 4 22 -45 43 -127 36 -139 -4 -7
-3 -10 1 -5 5 4 21 -28 36 -71 37 -110 50 -130 46 -72 -1 25 -8 51 -15 59 -7
7 -10 16 -7 19 3 4 10 0 15 -8 7 -11 10 -11 10 -2 0 7 -7 15 -15 18 -8 4 -12
10 -9 15 3 5 10 7 15 4 5 -4 9 161 9 424 l0 431 -47 0 c-35 0 -44 -3 -33 -10
13 -9 13 -10 0 -11 -8 -1 -19 -1 -24 0 -4 1 -14 -3 -21 -9 -9 -8 -14 -5 -18
10 -3 13 -13 20 -29 20 -30 0 -40 -8 -28 -24 6 -6 21 -25 34 -41 l24 -30 -34
-25 c-40 -30 -47 -65 -10 -56 21 5 23 3 20 -27 -2 -17 -6 -42 -9 -53 -3 -12
-1 -43 4 -69 9 -50 -1 -109 -22 -122 -6 -4 -23 -6 -38 -5 -17 1 -29 -4 -33
-14 -3 -9 -11 -12 -18 -8 -7 4 -5 -2 5 -13 22 -25 6 -35 -32 -21 -18 6 -27 4
-37 -9 -11 -14 -13 -14 -9 -2 5 13 0 15 -25 11 -19 -3 -30 0 -30 8 0 8 -9 10
-26 6 -17 -5 -24 -3 -19 4 7 11 -22 39 -40 39 -5 0 -2 -6 8 -13 9 -7 17 -18
17 -25 0 -20 -26 -12 -51 16 -13 15 -17 22 -8 15 14 -10 17 -9 22 7 2 11 -2
29 -10 40 -13 19 -12 21 4 18 10 -1 18 3 18 8 0 6 -4 10 -10 11 -38 4 -70 40
-56 63 6 10 14 5 27 -18 20 -33 34 -40 34 -16 0 9 6 12 16 8 12 -4 12 -8 3
-13 -8 -6 -5 -11 10 -19 25 -14 26 -6 6 32 l-14 28 30 -23 c17 -13 41 -29 53
-36 18 -12 18 -11 -1 3 -13 10 -23 24 -23 32 0 13 3 13 15 3 17 -14 19 -8 6
18 -41 82 -54 155 -28 165 9 4 9 6 0 6 -17 1 -16 31 2 55 21 27 20 60 -1 52
-13 -5 -15 -2 -11 14 8 31 -22 25 -35 -7 -6 -16 -11 -68 -11 -118 -1 -49 -3
-80 -5 -67 -3 17 -8 22 -20 17 -14 -5 -15 -4 -4 6 15 16 16 33 1 24 -6 -4 -16
1 -23 11 -10 13 -15 14 -21 4 -4 -7 -2 -16 6 -21 11 -8 10 -12 -5 -24 -14 -10
-15 -15 -6 -15 19 0 -3 -23 -25 -26 -19 -3 -20 21 -1 38 9 9 11 21 5 41 -12
42 -12 42 -29 39 -9 -2 -11 0 -4 5 6 4 14 20 18 36 5 20 3 27 -9 27 -26 0 -16
20 18 35 30 13 26 14 -76 15 -97 0 -108 -2 -105 -17z m718 -59 c-7 -16 -7 -23
0 -19 13 8 13 -68 1 -93 -5 -9 -15 -30 -22 -45 -7 -16 -22 -33 -34 -39 -18
-10 -19 -10 -6 5 12 15 11 17 -3 17 -15 0 -16 7 -10 45 4 30 3 45 -5 45 -6 0
-11 9 -11 20 0 18 10 25 32 21 4 0 5 6 2 14 -4 8 -10 15 -15 15 -4 0 -6 7 -3
14 3 8 22 17 42 19 21 2 38 4 39 5 1 1 -2 -10 -7 -24z m-570 -64 c0 -5 -7 -10
-16 -10 -8 0 -12 5 -9 10 3 6 10 10 16 10 5 0 9 -4 9 -10z m-57 -9 c4 -1 2
-11 -4 -23 -8 -14 -14 -18 -17 -10 -5 17 -22 15 -22 -3 0 -8 9 -15 19 -15 11
0 23 -4 26 -10 4 -6 -7 -10 -26 -10 -18 0 -29 3 -26 6 3 4 2 15 -4 25 -7 15
-6 21 6 25 8 3 13 10 10 14 -3 5 3 7 12 5 10 -2 22 -4 26 -4z m58 -48 c-8 -15
-10 -15 -11 -2 0 17 10 32 18 25 2 -3 -1 -13 -7 -23z m103 -68 c19 -28 20 -35
6 -35 -5 0 -10 6 -10 14 0 8 -7 22 -16 30 -8 9 -11 16 -6 16 5 0 17 -11 26
-25z m-39 -15 c3 -5 1 -10 -4 -10 -6 0 -11 5 -11 10 0 6 2 10 4 10 3 0 8 -4
11 -10z m252 -452 c-3 -8 -6 -5 -6 6 -1 11 2 17 5 13 3 -3 4 -12 1 -19z m289
-27 c-4 -6 -13 -11 -19 -11 -8 0 -7 3 2 9 8 5 10 14 6 22 -6 11 -5 11 5 2 7
-6 9 -16 6 -22z"/>
<path d="M760 918 c0 -11 12 -10 30 2 12 7 10 9 -8 7 -12 0 -22 -5 -22 -9z"/>
<path d="M295 949 c-10 -16 27 -40 42 -27 7 6 13 16 13 22 0 6 -7 2 -15 -8
-13 -17 -15 -17 -15 -4 0 21 -16 32 -25 17z"/>
<path d="M355 880 c-3 -5 -1 -10 4 -10 6 0 11 5 11 10 0 6 -2 10 -4 10 -3 0
-8 -4 -11 -10z"/>
<path d="M453 853 c2 -22 10 -30 37 -39 30 -10 36 -9 41 5 9 25 0 39 -33 50
-44 15 -47 14 -45 -16z"/>
<path d="M574 644 c-7 -29 2 -51 29 -68 28 -18 71 12 75 51 3 29 1 32 -25 31
-15 -1 -38 2 -50 6 -19 6 -23 2 -29 -20z m85 -20 c-8 -10 -21 -13 -37 -9 -19
5 -23 3 -19 -9 4 -9 2 -16 -3 -16 -11 0 -14 33 -3 43 3 4 22 7 41 7 30 0 33
-2 21 -16z"/>
<path d="M100 466 l0 -169 40 6 c35 4 39 3 29 -10 -8 -9 -22 -12 -38 -8 -16 3
-21 2 -13 -3 10 -7 10 -11 -3 -22 -8 -7 -15 -20 -15 -29 1 -13 3 -12 12 4 6
11 12 21 13 23 2 2 25 12 53 22 49 19 50 19 45 0 -3 -11 0 -20 6 -20 7 0 11
18 10 48 -1 26 -3 39 -6 30 -4 -15 -10 -12 -39 18 -19 20 -34 45 -34 56 0 11
-3 17 -8 15 -4 -3 -7 8 -7 24 -1 16 3 29 8 29 5 0 7 6 4 14 -3 8 -1 16 6 19
13 4 -9 53 -45 99 -17 22 -18 19 -18 -146z"/>
<path d="M462 601 c-11 -7 -11 -9 2 -14 10 -4 16 -1 16 8 0 17 -1 17 -18 6z"/>
<path d="M315 290 c-4 -12 -8 -81 -10 -155 l-2 -135 49 0 49 0 -7 89 c-7 97
-2 130 19 113 9 -8 12 -2 13 24 0 31 -1 33 -16 19 -12 -11 -19 -12 -28 -3 -8
8 -15 8 -26 -1 -15 -13 -32 1 -21 18 3 5 1 12 -4 16 -6 3 -8 12 -4 20 3 8 3
15 0 15 -3 0 -9 -9 -12 -20z"/>
<path d="M420 289 c0 -5 5 -7 10 -4 6 3 10 -3 10 -15 0 -11 11 -32 24 -45 23
-23 25 -23 23 -5 -1 11 -5 20 -9 20 -4 0 -14 14 -23 30 -15 29 -35 40 -35 19z"/>
<path d="M505 240 c3 -5 8 -10 11 -10 2 0 4 5 4 10 0 6 -5 10 -11 10 -5 0 -7
-4 -4 -10z"/>
<path d="M197 212 c-12 -13 -29 -18 -57 -17 -40 1 -54 -10 -24 -22 23 -8 91
14 98 34 9 23 2 26 -17 5z"/>
<path d="M216 185 c-11 -8 -14 -15 -7 -15 7 0 10 -4 7 -9 -4 -5 -2 -21 4 -35
6 -18 6 -26 -1 -26 -6 0 -8 -4 -4 -9 3 -6 -2 -14 -11 -19 -15 -8 -15 -10 0
-15 10 -4 15 -3 11 2 -3 5 -1 11 5 13 16 5 24 78 8 78 -9 0 -9 3 2 10 12 8 12
10 1 10 -11 0 -11 3 -1 15 16 19 11 19 -14 0z"/>
<path d="M108 153 c7 -3 16 -2 19 1 4 3 -2 6 -13 5 -11 0 -14 -3 -6 -6z"/>
<path d="M575 120 c-3 -5 -1 -10 4 -10 6 0 11 5 11 10 0 6 -2 10 -4 10 -3 0
-8 -4 -11 -10z"/>
</g>
</svg>
