<?xml version="1.0" standalone="no"?>
<!DOCTYPE svg PUBLIC "-//W3C//DTD SVG 20010904//EN"
 "http://www.w3.org/TR/2001/REC-SVG-20010904/DTD/svg10.dtd">
<svg version="1.0" xmlns="http://www.w3.org/2000/svg"
 width="100.000000pt" height="100.000000pt" viewBox="0 0 100.000000 100.000000"
 preserveAspectRatio="xMidYMid meet">

<g transform="translate(0.000000,100.000000) scale(0.100000,-0.100000)"
fill="#000000" stroke="none">
<path d="M0 908 c0 -64 3 -88 10 -78 8 13 10 12 10 -2 0 -10 -4 -18 -10 -18
-5 0 -10 -21 -10 -46 0 -37 3 -45 15 -40 8 3 19 -3 25 -13 7 -14 6 -20 -5 -25
-17 -6 -21 -66 -5 -66 6 0 10 -7 10 -15 0 -9 7 -18 15 -21 8 -4 15 -12 15 -20
0 -8 8 -14 18 -14 12 0 14 -2 4 -8 -7 -5 -10 -16 -7 -24 9 -22 97 -96 130
-108 14 -5 23 -15 20 -20 -3 -6 0 -13 8 -16 9 -3 13 -13 9 -26 -3 -14 2 -26
19 -39 31 -24 49 -24 49 1 0 11 5 20 11 20 5 0 7 -6 3 -12 -5 -9 -2 -9 9 1 9
7 17 20 17 28 0 13 -3 13 -15 3 -8 -7 -15 -9 -15 -4 0 18 34 104 42 104 4 0 1
-18 -7 -40 -8 -23 -10 -38 -5 -35 5 3 15 23 21 43 11 37 52 101 47 73 -2 -7 3
-16 10 -18 6 -3 12 -1 12 4 0 5 7 18 15 29 13 18 14 18 8 -6 -5 -21 -3 -23 8
-12 7 6 20 12 29 12 9 0 11 -3 5 -8 -5 -4 -11 -13 -13 -21 -3 -12 0 -12 13 -1
19 16 30 7 18 -14 -7 -14 -12 -14 -36 -1 -25 13 -29 12 -34 -1 -5 -13 -8 -13
-24 2 -17 15 -18 13 -25 -45 -3 -34 -12 -61 -18 -62 -6 0 -21 -13 -34 -29 -19
-24 -21 -33 -12 -47 10 -16 11 -16 6 -1 -3 10 -1 20 5 23 5 4 8 3 7 -2 -6 -24
16 -53 50 -64 20 -6 42 -16 49 -21 8 -7 10 -3 6 13 -5 16 -3 20 6 14 7 -4 5 4
-4 19 -16 24 -16 26 0 32 10 4 26 2 36 -4 25 -16 27 -15 31 11 4 22 9 24 41
12 12 -5 17 -2 17 9 0 9 4 16 8 16 5 0 14 11 20 25 10 21 8 33 -11 70 -25 50
-43 57 -56 21 -5 -13 -17 -26 -25 -29 -12 -5 -15 -14 -10 -33 5 -19 4 -25 -5
-20 -19 12 -13 57 8 63 11 3 21 13 24 24 3 10 15 23 27 27 12 4 21 11 21 15
-3 28 2 38 8 17 5 -17 14 -25 28 -24 16 0 28 -14 49 -58 27 -56 47 -72 57 -45
4 8 6 6 6 -4 1 -9 -10 -29 -24 -45 -14 -16 -25 -34 -25 -41 0 -6 -4 -13 -8
-15 -10 -4 -62 -82 -80 -118 -14 -29 -31 -105 -32 -137 l0 -23 205 0 205 0 -2
498 c-3 495 -3 497 -24 500 -11 2 -21 -3 -22 -10 -3 -36 -10 -69 -16 -75 -3
-4 -19 6 -34 20 -16 15 -31 27 -35 27 -3 0 -10 -15 -15 -32 -8 -31 -12 -34
-63 -41 -119 -17 -190 -8 -227 30 -23 22 -107 21 -133 -3 -14 -12 -19 -10 -47
22 -17 19 -36 33 -42 29 -16 -10 -12 -25 7 -25 13 0 14 -3 6 -11 -6 -6 -9 -18
-6 -26 7 -19 -20 -13 -29 7 -5 12 -7 12 -7 -2 -1 -9 6 -21 14 -25 13 -7 10
-14 -14 -43 -27 -33 -30 -34 -47 -19 -11 9 -26 14 -34 11 -12 -3 -12 -2 -3 8
14 15 6 40 -12 40 -20 0 -30 -21 -14 -31 11 -7 11 -9 1 -9 -18 0 -62 46 -62
65 0 8 8 15 18 15 16 1 16 1 0 14 -24 18 -23 29 1 21 11 -3 22 -1 26 4 4 7 -1
8 -12 4 -15 -5 -16 -3 -5 8 20 21 14 29 -23 29 -19 0 -35 -4 -35 -10 0 -5 -8
-10 -17 -10 -15 0 -16 2 -3 10 11 7 2 10 -32 10 l-48 0 0 -92z m980 68 c0 -11
-19 -15 -25 -6 -3 5 1 10 9 10 9 0 16 -2 16 -4z m0 -30 c0 -2 -7 -9 -15 -16
-13 -11 -14 -10 -9 4 5 14 24 23 24 12z m-574 -73 c-7 -7 -26 7 -26 19 0 6 6
6 15 -2 9 -7 13 -15 11 -17z m251 -41 c10 -7 10 -11 0 -24 -15 -20 -44 -24
-77 -11 l-25 11 35 15 c41 18 51 19 67 9z m-476 -20 c-7 -2 -18 1 -23 6 -8 8
-4 9 13 5 13 -4 18 -8 10 -11z m723 -26 c28 -60 20 -80 -25 -64 -30 10 -33 16
-29 58 4 52 31 55 54 6z m57 11 c-10 -9 -11 -8 -5 6 3 10 9 15 12 12 3 -3 0
-11 -7 -18z m-647 -19 c9 -12 16 -30 16 -39 0 -22 166 -109 212 -110 26 -1 28
-3 8 -6 -43 -7 -80 -25 -80 -39 0 -8 -4 -14 -10 -14 -5 0 -10 9 -10 20 0 22
-10 26 -26 10 -6 -6 -9 6 -8 31 0 34 -2 40 -17 36 -10 -3 -17 0 -16 6 1 6 -8
13 -21 15 -12 2 -20 8 -17 13 4 5 5 9 3 9 -2 0 -33 10 -70 23 -67 22 -68 23
-52 45 20 30 68 30 88 0z m-191 -88 c3 -11 1 -23 -4 -26 -5 -3 -9 0 -9 6 0 6
-10 8 -25 4 -19 -5 -25 -2 -25 10 0 9 5 16 11 16 5 0 8 4 5 9 -8 13 17 20 30
9 7 -5 14 -18 17 -28z m754 -16 c2 -10 0 -13 -3 -6 -4 8 -13 1 -27 -20 -29
-42 -46 -47 -39 -11 5 26 4 27 -13 13 -11 -9 -16 -10 -11 -2 8 14 -3 16 -24 2
-8 -5 -15 -18 -15 -29 0 -12 -3 -21 -7 -21 -5 0 -8 3 -7 6 2 15 -25 21 -42 11
-13 -8 -15 -13 -6 -19 8 -5 7 -8 -5 -8 -22 0 -22 -1 -4 -34 10 -21 15 -23 19
-11 9 22 27 18 27 -6 0 -11 6 -26 13 -32 35 -32 87 -48 87 -27 0 6 -11 10 -24
10 -14 0 -27 4 -31 10 -3 5 7 8 25 7 19 -1 32 -9 36 -19 7 -22 18 -23 34 -3 7
8 16 13 20 10 5 -3 11 12 15 33 4 23 12 39 20 39 19 0 27 -25 15 -48 -6 -10
-8 -29 -5 -41 3 -13 -1 -39 -9 -58 -8 -19 -15 -30 -16 -24 0 6 -15 12 -32 13
-48 4 -60 3 -90 -4 -15 -4 -36 -4 -45 0 -10 3 -19 5 -21 3 -1 -2 -9 10 -17 26
-9 16 -13 31 -11 33 2 2 -5 29 -15 59 -11 30 -17 59 -14 64 3 4 -1 10 -7 13
-18 5 8 37 31 38 9 0 52 13 96 29 89 31 99 32 102 4z m62 -23 c-21 -29 -39
-40 -39 -24 0 10 53 64 58 59 2 -3 -6 -18 -19 -35z m-884 -2 c-5 -14 -3 -17 9
-13 9 3 13 11 10 16 -4 6 -1 9 6 6 20 -6 24 -28 5 -28 -9 0 -13 -5 -9 -11 5
-8 1 -8 -14 0 -11 6 -19 21 -19 36 0 13 4 22 9 19 5 -3 6 -14 3 -25z m231 10
c7 -12 -41 -30 -60 -23 -7 3 -12 13 -9 23 3 13 12 16 34 13 16 -2 32 -8 35
-13z m-56 -67 c0 -7 -4 -10 -10 -7 -5 3 -10 16 -10 28 0 18 2 19 10 7 5 -8 10
-21 10 -28z m60 8 c4 0 10 7 14 15 3 8 13 15 23 15 15 0 16 -2 3 -10 -8 -5
-11 -10 -6 -10 5 0 3 -7 -4 -15 -6 -8 -18 -36 -26 -62 l-13 -48 4 46 c3 46
-11 87 -22 61 -5 -13 -23 -7 -23 9 0 6 5 7 10 4 6 -3 13 2 17 12 7 17 8 17 11
1 2 -10 7 -18 12 -18z m500 14 c0 -8 -4 -12 -10 -9 -5 3 -10 10 -10 16 0 5 5
9 10 9 6 0 10 -7 10 -16z m-165 -3 c3 -5 1 -12 -5 -16 -6 -4 -8 -10 -5 -15 10
-16 -13 -20 -25 -5 -10 12 -10 15 0 15 7 0 10 7 6 15 -6 16 19 21 29 6z m215
-10 c0 -14 -29 -21 -36 -9 -4 6 -3 8 4 4 6 -3 13 -2 17 4 8 12 15 13 15 1z
m-703 -18 c0 -9 -4 -10 -14 -2 -7 6 -13 12 -13 14 0 1 6 2 13 2 8 0 14 -6 14
-14z m214 -6 c-10 -9 -11 -8 -5 6 3 10 9 15 12 12 3 -3 0 -11 -7 -18z m140
-20 c-10 -9 -11 -8 -5 6 3 10 9 15 12 12 3 -3 0 -11 -7 -18z m-231 -7 c0 -11
-4 -20 -10 -20 -5 0 -10 9 -10 20 0 11 5 20 10 20 6 0 10 -9 10 -20z m123 -12
c-8 -46 -23 -82 -29 -75 -3 3 0 15 6 27 6 12 9 28 6 36 -6 17 3 44 15 44 5 0
6 -15 2 -32z m-41 0 c-7 -7 -12 -8 -12 -2 0 6 3 14 7 17 3 4 9 5 12 2 2 -3 -1
-11 -7 -17z m196 -3 c-6 -14 -13 -23 -15 -21 -5 5 15 46 22 46 3 0 -1 -11 -7
-25z m332 -29 c-14 -14 -24 0 -16 21 6 15 8 15 16 3 6 -9 5 -19 0 -24z m-557
-32 c-15 -16 -37 -36 -48 -44 -20 -14 -20 -14 -2 7 14 16 15 23 6 29 -8 4 -10
3 -5 -4 4 -7 2 -12 -4 -12 -7 0 -10 6 -7 13 2 6 14 11 25 11 13 -1 22 5 22 13
0 8 5 11 10 8 6 -3 13 2 17 11 4 10 8 13 10 7 2 -5 -9 -23 -24 -39z m274 -36
c-3 -8 -6 -5 -6 6 -1 11 2 17 5 13 3 -3 4 -12 1 -19z m-94 -19 c-6 -6 -9 -19
-6 -28 4 -13 3 -14 -5 -1 -10 14 1 40 16 40 3 0 1 -5 -5 -11z"/>
<path d="M180 996 c0 -2 7 -7 16 -10 8 -3 12 -2 9 4 -6 10 -25 14 -25 6z"/>
<path d="M795 990 c-4 -6 6 -10 24 -10 16 0 33 5 36 10 4 6 -6 10 -24 10 -16
0 -33 -4 -36 -10z"/>
<path d="M899 998 c-5 -17 -4 -48 2 -48 15 0 21 22 9 30 -10 6 -8 9 6 13 16 4
17 5 2 6 -10 0 -18 0 -19 -1z"/>
<path d="M245 976 c11 -8 24 -12 28 -9 11 7 -12 23 -32 23 -11 0 -9 -4 4 -14z"/>
<path d="M225 920 c4 -6 12 -7 18 -4 8 5 9 4 2 -4 -5 -5 -19 -12 -30 -15 -18
-4 -17 -5 3 -6 13 0 20 -5 17 -11 -7 -11 12 -50 24 -50 5 0 4 16 -2 36 -8 27
-8 37 2 43 10 6 9 10 -4 15 -24 9 -37 7 -30 -4z"/>
<path d="M15 710 c-3 -5 -1 -10 4 -10 6 0 11 5 11 10 0 6 -2 10 -4 10 -3 0 -8
-4 -11 -10z"/>
<path d="M2 581 c1 -23 4 -44 8 -46 8 -5 4 74 -4 83 -3 3 -5 -14 -4 -37z"/>
<path d="M260 235 c-11 -28 -41 -33 -60 -10 -16 19 -30 10 -30 -19 0 -25 52
-86 73 -86 17 0 38 -36 31 -55 -4 -10 -19 -15 -47 -15 -37 0 -47 6 -97 58 -31
31 -53 53 -48 47 26 -30 -16 -70 -60 -54 -21 8 -22 6 -22 -46 0 -30 5 -55 10
-55 6 0 10 5 10 10 0 6 7 10 16 10 8 0 12 -5 8 -11 -3 -6 4 -4 17 4 37 23 73
32 65 16 -4 -8 -1 -6 8 4 11 14 22 17 45 12 17 -4 28 -11 25 -16 -3 -6 -12 -8
-19 -5 -7 2 -16 -2 -19 -10 -4 -9 1 -14 14 -14 11 0 20 5 20 11 0 5 5 7 10 4
6 -3 10 0 10 7 0 9 3 9 10 -2 5 -8 18 -16 30 -16 22 -1 27 11 8 19 -10 4 -9 8
2 16 11 8 16 7 18 -4 2 -8 11 -15 20 -15 15 0 15 -2 2 -10 -10 -6 31 -9 123
-9 75 0 137 2 137 4 0 2 -21 16 -46 31 -38 23 -53 26 -95 21 -27 -3 -55 -10
-62 -14 -6 -4 -20 -9 -30 -10 -15 -2 -16 0 -7 16 7 14 7 22 -2 27 -7 5 -8 3
-3 -7 5 -8 5 -11 0 -7 -4 4 -9 21 -10 38 -3 35 20 64 45 57 16 -4 17 0 9 27
-5 17 -9 32 -9 33 0 5 -69 43 -79 43 -6 0 -16 -11 -21 -25z"/>
<path d="M482 100 c0 -19 2 -27 5 -17 2 9 2 25 0 35 -3 9 -5 1 -5 -18z"/>
</g>
</svg>
