<?xml version="1.0" standalone="no"?>
<!DOCTYPE svg PUBLIC "-//W3C//DTD SVG 20010904//EN"
 "http://www.w3.org/TR/2001/REC-SVG-20010904/DTD/svg10.dtd">
<svg version="1.0" xmlns="http://www.w3.org/2000/svg"
 width="205.000000pt" height="229.000000pt" viewBox="0 0 205.000000 229.000000"
 preserveAspectRatio="xMidYMid meet">

<g transform="translate(0.000000,229.000000) scale(0.100000,-0.100000)"
fill="#000000" stroke="none">
<path d="M940 2172 c-23 -10 -25 -26 -25 -162 l0 -124 85 3 c90 3 129 17 154
53 16 22 16 22 16 -15 0 -73 73 -110 140 -71 44 26 90 111 90 166 0 38 -5 50
-26 67 -47 37 -107 20 -160 -46 l-22 -28 0 45 c1 25 -4 55 -11 67 -14 28 -78
48 -124 39 -34 -6 -36 -9 -47 -64 -20 -98 -25 -101 -30 -13 -5 84 -11 96 -40
83z m180 -102 c11 -41 -46 -132 -64 -102 -3 5 11 83 23 130 1 2 9 2 18 0 9 -2
20 -14 23 -28z m210 -66 c-18 -47 -54 -94 -72 -94 -10 0 -18 5 -18 10 0 18 40
90 61 111 28 28 44 12 29 -27z"/>
<path d="M738 2129 c-56 -25 -57 -31 -29 -156 10 -46 16 -83 12 -83 -4 0 -17
7 -29 16 -16 11 -22 25 -22 55 0 31 -7 47 -29 70 -16 16 -36 29 -44 29 -19 0
-107 -60 -120 -81 -7 -12 2 -37 36 -98 l47 -83 -37 -44 c-47 -55 -68 -44 -33
17 22 41 22 43 5 56 -26 18 -30 17 -59 -19 -40 -51 -52 -23 -15 36 32 51 32
68 1 85 -16 9 -26 1 -70 -58 -29 -37 -52 -73 -52 -79 0 -13 180 -182 194 -182
6 0 22 17 36 37 14 20 46 58 72 84 l48 48 -17 30 c-24 41 -9 50 40 23 34 -19
43 -20 52 -9 5 7 31 19 57 26 83 23 127 94 112 179 -19 105 -71 139 -156 101z
m76 -75 c12 -30 6 -101 -9 -114 -17 -14 -18 -12 -34 65 -5 27 -7 53 -5 57 9
14 42 9 48 -8z m-214 -98 c0 -13 -6 -29 -13 -35 -22 -18 -40 31 -19 52 19 20
32 13 32 -17z"/>
<path d="M1440 1963 c-31 -26 -32 -28 -25 -89 7 -72 -6 -91 -33 -45 -17 31
-36 38 -61 22 -15 -10 -3 -40 33 -80 32 -35 61 -43 101 -27 40 17 49 41 40
111 -4 35 -2 55 5 60 17 10 25 -2 11 -18 -16 -20 23 -55 46 -41 46 29 41 83
-10 114 -43 27 -69 25 -107 -7z"/>
<path d="M1647 1694 c-37 -35 -85 -71 -107 -80 -37 -15 -38 -17 -28 -45 11
-33 16 -34 61 -15 19 8 75 14 132 15 55 1 101 4 103 5 1 2 0 15 -4 30 -6 23
-11 26 -53 26 -26 0 -51 3 -55 7 -3 4 10 23 29 43 l35 36 -22 21 -23 21 -68
-64z"/>
<path d="M240 1690 c-21 -21 -31 -51 -33 -102 -2 -32 0 -34 103 -85 58 -29
110 -53 116 -53 6 0 16 11 22 25 11 24 9 27 -22 46 -34 20 -34 21 -29 74 5 50
4 56 -25 84 -38 38 -100 43 -132 11z m88 -82 c4 -30 -7 -35 -38 -18 -26 14
-15 52 14 48 15 -2 22 -11 24 -30z"/>
<path d="M1135 1481 c-52 -22 -83 -99 -64 -159 25 -75 133 -74 164 2 24 58 19
103 -14 137 -30 30 -50 34 -86 20z"/>
<path d="M880 1460 c-61 -61 -14 -190 70 -192 71 -2 106 93 64 173 -7 15 -21
29 -29 33 -34 13 -85 6 -105 -14z"/>
<path d="M730 1333 c-57 -21 -69 -99 -25 -152 70 -82 188 -45 172 55 -11 68
-88 119 -147 97z"/>
<path d="M1295 1326 c-45 -20 -67 -50 -72 -100 -5 -38 -2 -48 20 -70 40 -40
99 -36 143 8 29 29 34 41 34 83 0 36 -5 55 -18 66 -26 24 -72 29 -107 13z"/>
<path d="M975 1211 c-23 -10 -53 -32 -67 -49 -63 -75 -39 -232 35 -232 12 0
41 7 65 15 37 13 47 13 85 0 23 -8 51 -15 63 -15 32 0 66 43 71 93 10 83 -30
156 -101 188 -52 23 -100 24 -151 0z"/>
<path d="M133 1173 c-16 -3 -23 -12 -23 -26 0 -36 21 -151 28 -159 4 -3 20 -4
35 -1 29 6 29 6 22 59 -5 45 -4 54 9 54 9 0 18 -12 22 -27 12 -56 16 -63 32
-63 31 0 42 15 39 54 -4 65 20 54 35 -16 l14 -63 -101 -35 c-103 -36 -117 -49
-92 -84 13 -18 16 -18 62 -3 27 10 50 15 53 13 2 -3 -15 -21 -37 -41 -43 -39
-50 -60 -27 -90 13 -17 18 -16 124 23 61 23 116 42 121 42 17 0 21 17 11 45
-7 19 -15 25 -26 21 -9 -3 -28 -9 -42 -12 l-27 -7 29 31 28 30 -18 129 -19
128 -115 1 c-63 1 -125 0 -137 -3z"/>
<path d="M1649 1151 c-35 -28 -33 -92 3 -128 43 -42 92 -38 133 12 23 26 38
36 49 32 15 -6 15 -9 1 -38 -15 -29 -15 -32 2 -45 10 -7 23 -12 28 -10 27 8
45 97 29 141 -4 10 -21 23 -38 30 -38 16 -72 5 -107 -36 -18 -23 -31 -30 -50
-27 l-24 4 28 12 c19 8 27 19 27 36 0 39 -43 48 -81 17z"/>
<path d="M1605 955 c-56 -55 -15 -141 87 -185 90 -39 158 -9 158 69 0 46 -34
85 -104 117 -67 31 -110 31 -141 -1z m125 -69 c30 -15 45 -29 45 -42 0 -13 -6
-18 -20 -16 -36 5 -110 48 -113 65 -5 24 33 22 88 -7z"/>
<path d="M1550 803 c-45 -16 -108 -115 -83 -132 5 -3 49 -39 96 -79 49 -41 95
-72 104 -70 9 2 28 24 41 49 29 57 23 100 -19 159 -37 51 -103 86 -139 73z
m71 -102 c26 -27 41 -81 22 -81 -5 0 -28 17 -52 38 -32 27 -43 43 -38 55 10
25 35 21 68 -12z"/>
<path d="M400 773 c-34 -12 -92 -59 -106 -84 -22 -43 -17 -77 15 -110 23 -23
38 -29 71 -29 33 0 42 4 49 23 11 29 4 40 -23 33 -13 -3 -31 1 -42 8 -19 14
-18 15 4 39 31 32 96 61 119 53 17 -7 17 -8 -1 -21 -10 -8 -24 -16 -30 -18 -6
-3 1 -17 16 -33 l28 -28 27 20 c48 36 43 102 -10 134 -30 19 -84 25 -117 13z"/>
<path d="M586 640 c-56 -17 -136 -118 -136 -172 0 -67 88 -101 156 -59 45 27
94 106 94 151 0 59 -54 97 -114 80z m54 -67 c0 -3 -11 -25 -25 -48 -29 -50
-72 -82 -88 -66 -19 19 65 121 100 121 7 0 13 -3 13 -7z"/>
<path d="M1362 627 c-24 -26 -24 -27 21 -176 17 -57 37 -105 43 -108 7 -2 24
3 38 12 19 13 24 23 20 39 -2 11 2 30 10 41 13 19 15 19 33 2 11 -9 24 -17 29
-17 13 1 54 37 54 48 0 20 -183 182 -205 182 -12 0 -31 -10 -43 -23z m98 -118
c0 -6 -4 -7 -10 -4 -5 3 -10 11 -10 16 0 6 5 7 10 4 6 -3 10 -11 10 -16z"/>
<path d="M702 498 c-72 -178 -74 -194 -22 -200 21 -3 27 4 46 56 l21 60 7 -71
c7 -69 8 -72 37 -78 17 -4 32 -5 35 -2 2 2 17 42 33 88 27 82 29 84 64 90 l37
6 1 -76 c1 -42 1 -88 0 -104 -1 -24 2 -27 33 -27 l34 0 7 103 c8 104 13 117
52 117 24 0 27 -9 54 -132 16 -75 21 -82 54 -74 26 7 27 9 20 51 -8 54 1 56
50 14 34 -31 36 -31 55 -14 27 24 25 36 -10 70 -23 22 -27 32 -20 46 22 40 0
119 -35 133 -20 7 -59 -1 -99 -21 -34 -17 -229 -19 -272 -3 -23 9 -27 7 -42
-30 -21 -51 -32 -51 -32 -1 0 30 -6 44 -22 55 -41 29 -54 21 -86 -56z m520
-54 c-13 -28 -35 -28 -41 1 -4 23 28 50 43 35 6 -6 5 -19 -2 -36z"/>
</g>
</svg>
