<?xml version="1.0" standalone="no"?>
<!DOCTYPE svg PUBLIC "-//W3C//DTD SVG 20010904//EN"
 "http://www.w3.org/TR/2001/REC-SVG-20010904/DTD/svg10.dtd">
<svg version="1.0" xmlns="http://www.w3.org/2000/svg"
 width="100.000000pt" height="100.000000pt" viewBox="0 0 100.000000 100.000000"
 preserveAspectRatio="xMidYMid meet">

<g transform="translate(0.000000,100.000000) scale(0.100000,-0.100000)"
fill="#000000" stroke="none">
<path d="M166 978 c-14 -19 -14 -23 1 -33 10 -8 13 -17 8 -26 -8 -12 -6 -12 9
0 13 11 14 16 5 22 -16 9 -21 39 -7 39 6 0 8 -7 4 -15 -3 -9 0 -15 8 -15 9 0
12 8 8 25 -5 31 -16 32 -36 3z"/>
<path d="M430 989 c0 -5 5 -7 10 -4 6 3 10 8 10 11 0 2 -4 4 -10 4 -5 0 -10
-5 -10 -11z"/>
<path d="M476 984 c-4 -9 -4 -19 -1 -22 3 -3 5 0 5 7 0 7 5 9 10 6 6 -3 10 1
10 9 0 21 -16 20 -24 0z"/>
<path d="M525 987 c11 -6 25 -18 32 -26 7 -9 13 -12 13 -7 0 5 8 2 17 -5 11
-10 14 -10 9 -1 -13 21 5 13 35 -17 31 -31 40 -53 13 -30 -13 11 -17 10 -26
-5 -8 -14 -12 -15 -26 -4 -14 11 -15 10 -8 -7 9 -23 14 -44 15 -63 1 -7 5 -11
10 -7 13 7 88 -33 95 -51 3 -9 1 -12 -4 -9 -6 3 -10 2 -10 -3 0 -6 7 -12 15
-16 8 -3 12 -12 9 -21 -3 -8 -2 -15 3 -15 5 0 10 -7 10 -15 0 -8 -5 -15 -10
-15 -12 0 0 -14 14 -16 5 -1 12 -2 15 -3 4 0 1 -8 -6 -16 -8 -10 -9 -15 -2
-15 6 0 9 -7 6 -15 -10 -25 -25 -17 -20 10 3 14 1 23 -5 20 -5 -4 -9 -15 -9
-26 0 -10 -5 -19 -11 -19 -5 0 -8 4 -4 9 3 5 1 12 -5 16 -5 3 -7 18 -4 33 4
20 0 33 -14 45 -19 17 -20 17 -26 -8 -4 -14 -11 -23 -16 -20 -6 3 -10 1 -10
-6 0 -10 -3 -10 -12 -1 -16 16 -33 15 -52 -4 -23 -22 -20 -34 8 -34 14 0 28
-4 31 -10 4 -6 -1 -7 -11 -3 -13 5 -15 3 -9 -7 5 -9 4 -11 -4 -6 -6 4 -18 2
-26 -4 -10 -8 -15 -9 -15 -2 0 6 -7 9 -15 6 -8 -4 -15 -1 -15 5 0 6 7 11 16
11 8 0 12 5 9 10 -4 6 -10 8 -15 5 -5 -3 -12 -1 -15 5 -5 8 -11 7 -21 -1 -12
-9 -12 -15 -2 -28 8 -10 5 -9 -10 3 -23 20 -30 32 -10 20 8 -5 9 -2 5 10 -4 9
-3 14 2 11 5 -3 12 -1 16 5 4 6 10 8 14 6 4 -3 8 1 8 9 0 18 -9 19 -24 4 -9
-9 -11 -7 -9 5 1 9 8 22 14 28 15 15 16 28 2 28 -5 0 -10 -6 -10 -14 0 -8 -9
-17 -19 -21 -13 -4 -18 -13 -16 -30 2 -20 -1 -23 -11 -14 -7 6 -18 8 -24 4 -5
-3 -10 2 -10 14 0 11 -4 22 -9 25 -5 3 -11 15 -14 26 -4 16 0 20 20 20 21 0
23 -3 14 -14 -9 -10 -8 -15 3 -19 9 -4 13 -1 11 6 -3 7 0 19 5 27 8 13 11 13
19 1 7 -11 11 -9 20 8 14 26 27 27 34 2 3 -14 11 -18 25 -14 23 5 19 33 -4 33
-8 0 -11 6 -8 15 5 11 2 13 -11 9 -15 -6 -16 -4 -6 14 9 18 8 23 -9 32 -11 6
-18 16 -14 21 4 6 14 3 27 -8 11 -10 17 -12 13 -5 -5 8 1 12 18 12 13 0 26 -5
28 -12 3 -8 9 -8 22 -1 16 9 16 11 2 26 -9 9 -25 14 -36 12 -11 -2 -20 2 -21
8 0 7 -4 3 -9 -8 -8 -19 -9 -19 -9 3 -1 25 -11 28 -30 10 -11 -10 -13 -10 -7
0 10 18 -4 38 -15 21 -8 -12 -10 -12 -18 -1 -7 12 -14 11 -41 -3 -18 -9 -29
-12 -26 -7 3 6 1 12 -6 14 -7 3 -5 7 6 11 10 4 15 3 11 -3 -8 -14 5 -12 34 4
24 13 23 14 -17 12 -23 -1 -44 -5 -48 -9 -4 -4 -13 -2 -20 4 -8 6 -20 9 -28 6
-9 -4 -12 0 -9 13 3 10 0 20 -5 24 -12 7 -25 -22 -15 -36 4 -7 1 -8 -6 -4 -7
5 -10 14 -7 22 3 8 2 14 -2 14 -15 0 -42 -41 -44 -65 -1 -14 -8 -25 -15 -25
-7 0 -13 -7 -13 -15 0 -8 8 -15 18 -15 9 0 -1 -9 -23 -19 -22 -11 -35 -20 -29
-20 12 -1 15 -31 2 -31 -4 0 -8 -62 -7 -137 0 -76 3 -133 6 -126 10 25 39 -7
35 -38 -4 -28 -22 -41 -22 -16 0 8 -3 7 -9 -2 -6 -8 -10 -118 -11 -243 l-1
-228 300 0 c275 0 300 1 307 18 4 9 9 59 9 110 1 50 5 95 8 99 4 3 1 13 -6 22
-10 14 -10 14 4 4 24 -19 30 -4 8 18 -23 23 -25 55 -3 63 8 3 12 11 9 16 -5 8
-12 7 -23 -2 -14 -12 -14 -10 -3 10 7 13 10 28 7 35 -2 7 -5 4 -5 -5 -1 -10
-5 -18 -10 -18 -15 0 -23 18 -12 25 16 9 1 34 -16 28 -13 -5 -13 -3 -2 16 8
12 15 17 17 11 2 -5 11 -10 20 -9 11 0 12 3 5 6 -9 3 -10 10 -3 24 6 10 8 19
5 19 -3 0 -1 9 5 21 7 12 18 18 26 15 8 -3 14 1 14 8 0 8 11 14 25 14 14 0 25
-3 25 -7 -1 -12 -27 -41 -38 -41 -15 0 -8 -47 10 -68 16 -17 13 -47 -2 -37 -5
3 -7 11 -5 18 6 15 -42 73 -53 63 -4 -4 0 -13 9 -19 20 -15 13 -38 -8 -30 -11
4 -14 2 -9 -5 4 -7 13 -12 19 -12 7 0 18 -9 25 -21 11 -16 16 -18 28 -9 14 13
19 5 15 -27 -1 -6 3 -14 9 -18 7 -4 10 6 8 29 -1 20 -7 36 -12 36 -6 0 -5 5 2
12 15 15 16 181 2 208 -7 13 -7 21 0 25 7 4 10 68 9 179 l-1 173 -74 1 c-63 0
-76 -3 -84 -19 -14 -25 -26 -24 -33 1 -5 18 -13 20 -83 19 -62 -1 -74 -3 -59
-12z m269 -6 c3 -5 -3 -11 -15 -14 -16 -4 -18 -3 -8 9 13 16 16 17 23 5z m32
-40 c-9 -12 -8 -14 5 -9 13 5 16 2 12 -12 -3 -10 -13 -18 -23 -17 -12 1 -16 7
-12 21 3 12 1 17 -5 13 -6 -4 -14 0 -17 9 -4 12 -2 15 9 10 8 -3 14 -2 14 2
-3 18 2 22 15 10 11 -10 11 -16 2 -27z m-141 -70 c1 -13 -6 -21 -22 -24 -13
-2 -23 0 -23 4 0 5 5 9 12 9 6 0 9 3 5 6 -7 7 15 34 22 28 3 -3 5 -13 6 -23z
m-368 -17 c-3 -3 -12 -4 -19 -1 -8 3 -5 6 6 6 11 1 17 -2 13 -5z m80 -50 c-3
-3 -12 -4 -19 -1 -8 3 -5 6 6 6 11 1 17 -2 13 -5z m63 -18 c0 -3 -4 -8 -10
-11 -5 -3 -10 -1 -10 4 0 6 5 11 10 11 6 0 10 -2 10 -4z m168 -198 c-2 -7 -7
-16 -13 -20 -6 -5 -6 -8 2 -8 7 0 16 6 20 14 7 12 10 12 22 -1 12 -14 12 -15
0 -11 -7 2 -20 -1 -27 -9 -19 -18 -52 -16 -69 5 -12 15 -13 14 -7 -10 4 -19 2
-28 -6 -28 -7 0 -10 6 -7 14 3 8 -2 16 -15 19 -12 4 -17 10 -13 17 6 9 9 9 15
0 5 -8 9 -6 14 7 7 16 9 16 27 -7 12 -14 18 -19 14 -12 -3 6 -1 12 5 12 6 0 9
4 5 9 -3 5 3 12 12 14 10 3 19 5 21 6 1 0 1 -5 0 -11z m90 -26 c6 -18 -15 -14
-22 4 -4 10 -1 14 6 12 6 -2 14 -10 16 -16z m-219 -6 c10 -12 8 -13 -8 -9 -12
3 -18 9 -15 14 7 12 10 11 23 -5z m-69 -20 c0 -2 -8 -10 -17 -17 -16 -13 -17
-12 -4 4 13 16 21 21 21 13z m50 -3 c-21 -9 -40 -30 -33 -37 4 -3 1 -6 -5 -6
-15 0 -15 5 0 30 7 11 22 20 33 19 14 0 16 -2 5 -6z m160 -63 c0 -6 -6 -10
-12 -10 -9 0 -8 -4 2 -10 18 -12 43 -13 36 -2 -6 10 30 43 38 35 10 -10 7 -43
-4 -43 -5 0 -10 -7 -10 -16 0 -8 -5 -12 -11 -8 -8 5 -8 1 0 -14 10 -18 9 -20
-10 -17 -15 3 -19 0 -15 -11 4 -10 1 -14 -6 -12 -7 3 -13 9 -13 14 -1 27 -50
41 -80 22 -6 -3 -10 6 -10 22 0 38 50 83 77 69 10 -5 18 -14 18 -19z m-10 -84
c0 -3 -4 -8 -10 -11 -5 -3 -10 -1 -10 4 0 6 5 11 10 11 6 0 10 -2 10 -4z m-20
-30 c0 -3 -4 -8 -10 -11 -5 -3 -10 -1 -10 4 0 6 5 11 10 11 6 0 10 -2 10 -4z
m14 -91 c-4 -8 -11 -15 -16 -15 -6 0 -5 6 2 15 7 8 14 15 16 15 2 0 1 -7 -2
-15z m-185 -73 l-1 -37 -8 35 c-5 19 -13 36 -19 38 -6 2 -11 8 -11 13 0 6 8 5
20 -1 15 -8 20 -20 19 -48z"/>
<path d="M510 944 c0 -8 5 -12 10 -9 6 4 8 11 5 16 -9 14 -15 11 -15 -7z"/>
<path d="M556 932 c-3 -5 1 -9 9 -9 8 0 15 4 15 9 0 4 -4 8 -9 8 -6 0 -12 -4
-15 -8z"/>
<path d="M140 860 c0 -5 5 -10 11 -10 5 0 7 5 4 10 -3 6 -8 10 -11 10 -2 0 -4
-4 -4 -10z"/>
<path d="M620 791 c0 -6 5 -11 11 -11 5 0 7 -4 4 -10 -3 -5 -1 -10 4 -10 16 0
13 16 -4 30 -10 9 -15 9 -15 1z"/>
<path d="M683 715 c0 -8 4 -12 9 -9 5 3 6 10 3 15 -9 13 -12 11 -12 -6z"/>
<path d="M513 665 c0 -14 3 -25 8 -25 5 0 9 9 9 19 0 11 -4 22 -9 25 -5 3 -8
-6 -8 -19z"/>
<path d="M771 384 c0 -11 3 -14 6 -6 3 7 2 16 -1 19 -3 4 -6 -2 -5 -13z"/>
<path d="M804 302 c3 -5 0 -13 -6 -15 -9 -4 -10 -6 -1 -6 17 -1 25 16 12 25
-7 4 -9 3 -5 -4z"/>
<path d="M850 279 c0 -6 -7 -17 -15 -25 -11 -11 -12 -21 -5 -33 6 -12 5 -22
-2 -29 -7 -7 -10 -12 -7 -13 2 0 12 -2 22 -4 13 -2 17 3 17 24 0 15 -6 33 -12
40 -10 11 -10 13 0 7 8 -5 12 1 12 18 0 14 -2 26 -5 26 -3 0 -5 -5 -5 -11z"/>
<path d="M809 263 c-13 -16 -12 -17 4 -4 9 7 17 15 17 17 0 8 -8 3 -21 -13z"/>
<path d="M785 228 c-29 -16 -29 -16 -15 -33 14 -17 30 -20 30 -4 0 5 -5 7 -11
3 -6 -3 -3 5 6 20 19 29 19 30 -10 14z"/>
</g>
</svg>
